<svg xmlns="http://www.w3.org/2000/svg" width="43.36" height="74.561" viewBox="0 0 43.36 74.561"><g id="svgGroup" stroke-linecap="round" fill-rule="evenodd" font-size="9pt" stroke="#000" stroke-width="0.5mm" fill="" style="stroke:#000;stroke-width:0.5mm;fill:"><path d="M 14.209 48.584 L 14.209 42.529 A 18.01 18.01 0 0 1 14.531 39.088 A 16.66 16.66 0 0 1 14.575 38.867 A 15.781 15.781 0 0 1 15.266 36.479 A 13.827 13.827 0 0 1 15.625 35.62 A 11.356 11.356 0 0 1 16.704 33.746 A 9.897 9.897 0 0 1 17.285 33.008 A 7.737 7.737 0 0 1 18.815 31.646 A 6.992 6.992 0 0 1 19.483 31.25 L 31.69 25.049 L 31.69 8.399 L 11.67 8.399 L 11.67 18.799 L 0 18.799 L 0 12.402 A 16.158 16.158 0 0 1 0.362 8.932 A 14.234 14.234 0 0 1 0.733 7.568 A 14.744 14.744 0 0 1 1.816 5.04 A 12.353 12.353 0 0 1 2.71 3.638 A 9.945 9.945 0 0 1 4.776 1.545 A 9.109 9.109 0 0 1 5.64 0.977 A 7.13 7.13 0 0 1 9.277 0 L 34.082 0 Q 35.986 0 37.695 0.977 Q 39.404 1.953 40.65 3.638 Q 41.895 5.322 42.627 7.568 A 15.062 15.062 0 0 1 43.329 11.365 A 17.587 17.587 0 0 1 43.36 12.402 L 43.36 22.559 A 16.304 16.304 0 0 1 42.944 26.221 A 15.395 15.395 0 0 1 42.171 28.666 A 13.506 13.506 0 0 1 41.773 29.541 A 12.37 12.37 0 0 1 40.349 31.775 A 11.225 11.225 0 0 1 39.966 32.227 A 8.834 8.834 0 0 1 38.731 33.375 A 7.228 7.228 0 0 1 37.695 34.033 L 25.83 40.088 L 25.83 48.584 L 14.209 48.584 Z M 11.865 66.358 Q 11.865 64.649 12.5 63.159 A 8.208 8.208 0 0 1 14.258 60.547 Q 15.381 59.424 16.87 58.765 A 7.812 7.812 0 0 1 20.069 58.106 A 7.812 7.812 0 0 1 23.267 58.765 A 8.554 8.554 0 0 1 25.879 60.547 Q 27.002 61.67 27.661 63.159 A 7.812 7.812 0 0 1 28.32 66.358 A 7.812 7.812 0 0 1 27.661 69.556 A 8.554 8.554 0 0 1 25.879 72.168 Q 24.756 73.291 23.242 73.926 A 8.125 8.125 0 0 1 20.069 74.561 Q 18.36 74.561 16.87 73.926 A 8.208 8.208 0 0 1 14.258 72.168 A 8.208 8.208 0 0 1 12.5 69.556 Q 11.865 68.066 11.865 66.358 Z" vector-effect="non-scaling-stroke"/></g></svg>