<svg xmlns="http://www.w3.org/2000/svg" version="1.1" xmlns:xlink="http://www.w3.org/1999/xlink" width="512" height="512" x="0" y="0" viewBox="0 0 489.8 489.8" xml:space="preserve" style=""><g><path d="M489.8 280.92c0-13.9-11.3-25.2-25.2-25.2h-74.1c-62.1 0-112.4 50.2-112.7 112.2-.1 32.3-23 61-55 65-38.4 4.8-71.2-25.2-71.2-62.6v-56.4c57.6-11.7 101-62.6 101-123.7v-64c0-9.1-7.3-16.4-16.4-16.4h-31.3v-79.1c0-12.4-9-23.4-21.3-24.6-14.1-1.4-26 9.7-26 23.6v80.1H95.2v-79.1c0-12.4-9-23.4-21.4-24.6-14.1-1.3-26 9.7-26 23.6v80.1H16.4c-9.1 0-16.4 7.3-16.4 16.4v64c0 61.1 43.4 112 101 123.7v53.5c0 61.5 47.7 114 109.2 116.3 64.6 2.4 118-49.4 118-113.5v-.9c0-34.9 28.3-63.1 63.1-63.1h73.2c14-.1 25.3-11.4 25.3-25.3z" opacity="1"></path></g></svg>