<svg xmlns="http://www.w3.org/2000/svg" xmlns:xlink="http://www.w3.org/1999/xlink" height="800px" width="800px" version="1.1" viewBox="0 0 512.019 512.019" xml:space="preserve">
<g>
	<g>
		<path d="M503.765,235.17c-8.917-21.461-24.448-38.699-44.075-50.325l-25.003-60.117c-13.568-32.533-51.072-48.021-83.669-34.453    l-11.136,4.629l-45.077-64.469c-2.944-4.203-7.317-7.211-12.309-8.469L197.163,0.631c-9.6-2.389-19.776,2.24-24.256,11.157    l-41.131,82.24l-61.525,61.568c-5.717,5.696-7.723,14.165-5.163,21.824l12.245,36.715c-31.488,3.968-56,30.421-56,62.72v65.152    C8.107,359.756,0,381.538,0,405.346c0,58.795,47.851,106.667,106.667,106.667c58.795,0,106.667-47.872,106.667-106.667    c0-23.808-8.107-45.589-21.333-63.339v-65.152c0-35.008-28.715-63.509-64-63.509h-5.973l-12.288-36.907l54.677-54.677    c1.621-1.621,2.965-3.499,3.989-5.547l35.029-70.037l60.971,15.253l35.904,51.328c-24.661,16.704-35.072,49.045-23.168,77.589    l25.024,60.139c-5.376,21.483-4.48,44.715,4.672,66.667c10.944,26.304,31.488,46.784,57.813,57.621    c13.141,5.397,26.88,8.107,40.661,8.107c13.888,0,27.776-2.752,41.003-8.256c26.304-10.965,46.763-31.488,57.621-57.835    C514.773,290.444,514.709,261.452,503.765,235.17z M154.603,363.468c0.043,0.064,0.128,0.085,0.192,0.149    c9.749,11.243,15.872,25.707,15.872,41.728c0,35.285-28.715,64-64,64c-35.307,0-64-28.715-64-64    c0-15.979,6.08-30.421,15.808-41.664c0.064-0.085,0.171-0.128,0.235-0.213C83.669,334.924,129.643,334.924,154.603,363.468z     M464.469,300.535c-6.507,15.808-18.773,28.139-34.56,34.688c-15.808,6.613-33.216,6.613-48.981,0.107    c-15.808-6.507-28.117-18.795-34.709-34.581c-6.144-14.741-6.08-30.4-1.429-44.501c0.043-0.107,0.128-0.192,0.149-0.299    c2.965-8.768,7.531-16.512,13.376-22.997c0.192-0.192,0.32-0.427,0.512-0.64c2.603-2.816,5.547-5.269,8.64-7.552    c0.533-0.384,0.96-0.875,1.493-1.237c3.627-2.539,7.552-4.693,11.733-6.443c4.139-1.728,8.405-2.965,12.715-3.776    c0.768-0.149,1.579-0.107,2.368-0.235c3.691-0.533,7.424-0.917,11.157-0.789c0.192,0,0.363,0.043,0.555,0.064    c8.789,0.384,17.6,2.624,25.963,6.741c0.149,0.085,0.32,0.085,0.469,0.149c13.696,6.869,24.512,18.048,30.464,32.32v0.021    C470.955,267.34,470.997,284.727,464.469,300.535z"/>
	</g>
</g>
</svg>