<svg xmlns="http://www.w3.org/2000/svg" version="1.1" xmlns:xlink="http://www.w3.org/1999/xlink" x="0" y="0" xml:space="preserve" class="" viewBox="1 4 30 24"><g><path d="M30 10h-1v11c0 1.65-1.35 3-3 3H5v3c0 .55.45 1 1 1h24c.55 0 1-.45 1-1V11c0-.55-.45-1-1-1z" opacity="1" data-original="#000000" class=""></path><path d="M27 21V5c0-.55-.45-1-1-1H2c-.55 0-1 .45-1 1v16c0 .55.45 1 1 1h24c.55 0 1-.45 1-1zM7.5 14h-1c-.55 0-1-.45-1-1s.45-1 1-1h1c.55 0 1 .45 1 1s-.45 1-1 1zm5.75-2h1.5a2.5 2.5 0 0 1 2.5 2.5c0 1.29-.99 2.35-2.25 2.47v.53c0 .55-.45 1-1 1s-1-.45-1-1V17h-1.25c-.55 0-1-.45-1-1s.45-1 1-1h3c.28 0 .5-.22.5-.5s-.22-.5-.5-.5h-1.5a2.5 2.5 0 0 1-2.5-2.5c0-1.29.99-2.35 2.25-2.47V8.5c0-.55.45-1 1-1s1 .45 1 1V9h1.25c.55 0 1 .45 1 1s-.45 1-1 1h-3c-.28 0-.5.22-.5.5s.22.5.5.5zm8.25 2h-1c-.55 0-1-.45-1-1s.45-1 1-1h1c.55 0 1 .45 1 1s-.45 1-1 1z" opacity="1" class=""></path></g></svg>