<svg xmlns="http://www.w3.org/2000/svg" version="1.1" xmlns:xlink="http://www.w3.org/1999/xlink" width="512" height="512" x="0" y="0" viewBox="0 0 512 512" xml:space="preserve" class="" style="
"><g><path d="M116.87 100.174h-16.696v33.391h16.696c9.206 0 16.696-7.49 16.696-16.696s-7.49-16.695-16.696-16.695z" opacity="1" data-original="#000000" class=""></path><path d="M478.609 442.141C498 435.227 512 416.868 512 395.13v-33.391c0-23.228-15.968-42.633-37.451-48.273l-22.581-67.738a50.014 50.014 0 0 0-47.511-34.251H274.5a50.015 50.015 0 0 0-47.511 34.245l-22.583 67.743c-21.482 5.64-37.449 25.045-37.449 48.273v33.391c0 21.737 14 40.096 33.391 47.01v19.772c0 5.882 1.207 11.448 3.076 16.696h-69.859v-212.81c56.544-8.145 100.174-56.777 100.174-115.536V116.87C233.739 52.429 181.315 0 116.87 0S0 52.429 0 116.87v33.391c0 58.759 43.63 107.391 100.174 115.536v212.812H16.696C7.479 478.609 0 486.082 0 495.304 0 504.527 7.479 512 16.696 512h478.609c9.217 0 16.696-7.473 16.696-16.696 0-9.223-7.479-16.696-16.696-16.696h-19.772c1.87-5.248 3.076-10.813 3.076-16.696v-19.771zM100.174 166.957v16.696c0 9.223-7.479 16.696-16.696 16.696s-16.696-7.473-16.696-16.696V83.478c0-9.223 7.479-16.696 16.696-16.696h33.391c27.619 0 50.087 22.468 50.087 50.087 0 27.619-22.468 50.087-50.087 50.087h-16.695zm158.49 89.326a16.682 16.682 0 0 1 15.838-11.413h129.957a16.677 16.677 0 0 1 15.837 11.419l18.454 55.364H240.206l18.458-55.37zm-41.621 155.543c-9.206 0-16.696-7.49-16.696-16.696v-33.391c0-9.206 7.49-16.696 16.696-16.696h21.362l22.261 66.783h-43.623zm80.402 66.783c1.87-5.248 3.076-10.813 3.076-16.696v-16.696h77.913v16.696c0 5.882 1.207 11.448 3.076 16.696h-84.065zm164.468-66.783h-43.622l22.261-66.783h21.362c9.206 0 16.696 7.49 16.696 16.696v33.391c-.001 9.206-7.491 16.696-16.697 16.696z" opacity="1" data-original="#000000" class=""></path></g></svg>