<svg xmlns="http://www.w3.org/2000/svg" version="1.1" xmlns:xlink="http://www.w3.org/1999/xlink" width="512" height="512" x="0" y="0" viewBox="0 0 24 24" xml:space="preserve" class=""><g><path d="M12 0C8.14 0 5 3.14 5 7s3.14 7 7 7 7-3.14 7-7-3.14-7-7-7zm3.787 6.757-1.361 1.395.323 1.978a.75.75 0 0 1-1.103.776L12 9.997l-1.646.91a.749.749 0 0 1-1.104-.777l.323-1.978-1.36-1.395a.75.75 0 0 1 .424-1.265l1.851-.283.834-1.777c.246-.527 1.111-.527 1.357 0l.834 1.777 1.851.283a.748.748 0 0 1 .423 1.265zM5.96 12.98l-3.87 6.95c-.13.24-.12.54.03.77s.41.37.69.34l3.08-.23 1.36 2.77c.13.25.38.41.65.42h.02c.27 0 .53-.15.66-.38l2.52-4.48-2.45-4.33a8.557 8.557 0 0 1-2.69-1.83zM21.9 19.93 18 13.02a8.43 8.43 0 0 1-4.8 2.39c-.39.06-.79.09-1.2.09-.44 0-.87-.03-1.29-.1l1.25 2.21 3.39 6.01c.13.23.38.38.65.38h.02c.28-.01.53-.17.66-.42l1.37-2.77 3.14.24c.28.02.54-.11.69-.35.15-.23.16-.53.02-.77z" opacity="1"></path></g></svg>