<svg xmlns="http://www.w3.org/2000/svg" version="1.1" xmlns:xlink="http://www.w3.org/1999/xlink" x="0" y="0" xml:space="preserve" style=" " viewBox="2 2 28 28"><g><g data-name="29-Tax"><path d="M25 8h4.41L24 2.59V7a1 1 0 0 0 1 1z" opacity="1" data-original="#000000" class=""></path><path d="M25 10a3 3 0 0 1-3-3V2H11a3 3 0 0 0-3 3v7.2A10 10 0 0 1 16 30h11a3 3 0 0 0 3-3V10zm-6 0h-6a1 1 0 0 1 0-2h6a1 1 0 0 1 0 2zm6 15h-2a1 1 0 0 1 0-2h2a1 1 0 0 1 0 2zm0-5h-2a1 1 0 0 1 0-2h2a1 1 0 0 1 0 2zm0-5h-4a1 1 0 0 1 0-2h4a1 1 0 0 1 0 2z" opacity="1" data-original="#000000" class=""></path><path d="M10 14a8 8 0 1 0 8 8 8 8 0 0 0-8-8zm-2 5a1 1 0 1 1-1 1 1 1 0 0 1 1-1zm4 6a1 1 0 1 1 1-1 1 1 0 0 1-1 1zm.71-4.29-4 4a1 1 0 0 1-1.42 0 1 1 0 0 1 0-1.42l4-4a1 1 0 0 1 1.42 1.42z" opacity="1" data-original="#000000" class=""></path></g></g></svg>