<svg xmlns="http://www.w3.org/2000/svg" version="1.1" xmlns:xlink="http://www.w3.org/1999/xlink" width="512" height="512" x="0" y="0" viewBox="0 0 218.968 145.584" style="enable-background:new 0 0 512 512" xml:space="preserve" class=""><g><path d="m92.629 53.617-2.946 13.851 12.073 11.949-15.967 30.094c-3.106 5.854-.878 13.118 4.977 16.224a12 12 0 0 0 16.225-4.977l20.147-37.972a12 12 0 0 0-2.16-14.153l-14.15-14.005c-5.085-.63-10.292-1.057-15.373-1.057-.956 0-1.9.016-2.826.046z" opacity="1" data-original="#000000" class=""></path><path d="m172.32 117.807-12.811-77.78c-.006-.034-.016-.067-.022-.101-1.114-7.392-6.606-15.382-17.826-19.008-11.588-3.67-20.852-5.635-30.79-6.093-7.469-.344-15.317.16-24.827 1.447-11.81 2.525-15.705 9.19-16.825 16.186l-9.33 43.86L8.548 93.431a12.502 12.502 0 0 0-6.708 18.385l6.605 10.79a12.495 12.495 0 0 0 17.189 4.133c5.008-3.066 7.095-9.093 5.389-14.448l43.559-14.52a12.5 12.5 0 0 0 8.273-9.257l7.896-37.119c8.12-.445 16.623.359 24.648 1.532 6.152.9 12.017 2.014 17.208 2.962L130.483 43c-.447-2.714.19-5.44 1.793-7.676s3.982-3.713 6.697-4.16a10.353 10.353 0 0 1 1.681-.138 10.26 10.26 0 0 1 10.156 8.627l12.811 77.78a10.231 10.231 0 0 1-1.793 7.676 10.4 10.4 0 0 1-.973 1.15 7.952 7.952 0 0 0 4.872.741 8 8 0 0 0 6.593-9.193z" opacity="1" data-original="#000000" class=""></path><circle cx="183.913" cy="22.501" r="22.5" transform="rotate(-49.9 183.852 22.526)" opacity="1" data-original="#000000" class=""></circle><path d="M148.54 40.027a8 8 0 1 0-15.787 2.6l12.811 77.78a8.001 8.001 0 0 0 9.194 6.593 8 8 0 0 0 6.593-9.193zM171.362 145.584h12.881l34.725-56.367h-7.248z" opacity="1"></path></g></svg>