<svg xmlns="http://www.w3.org/2000/svg" version="1.1" xmlns:xlink="http://www.w3.org/1999/xlink" x="0" y="0" xml:space="preserve" style=" " viewBox="0 88 512 346.24"><g><g data-name="15-refund"><path d="M240.865 240h14.27L248 218.597z" opacity="1" data-original="#000000" class=""></path><path d="M472 88H40a40.045 40.045 0 0 0-40 40v224a40.045 40.045 0 0 0 40 40h88v-32H40a8.009 8.009 0 0 1-8-8V128a8.009 8.009 0 0 1 8-8h432a8.009 8.009 0 0 1 8 8v224a8.009 8.009 0 0 1-8 8H274.161l18.131-21.757-24.584-20.486-40 48a16 16 0 0 0 0 20.486l40 48 24.584-20.486L274.161 392H472a40.045 40.045 0 0 0 40-40V128a40.045 40.045 0 0 0-40-40z" opacity="1" data-original="#000000" class=""></path><path d="M464 344V136H48v208h177.012l40.648-48.778 49.166 40.978-6.5 7.805zM192 208h-32v80h-32v-80H96v-32h96zm80.821 85.06L265.8 272h-35.6l-7.02 21.06-30.358-10.12 32-96A16 16 0 0 1 240 176h16a16 16 0 0 1 15.179 10.94l32 96zm42.887-98.817 24.584-20.486L368 207.007l27.708-33.25 24.584 20.486L388.827 232l31.465 37.757-24.584 20.486L368 256.993l-27.708 33.25-24.584-20.486L347.173 232z" opacity="1" data-original="#000000" class=""></path></g></g></svg>