<svg xmlns="http://www.w3.org/2000/svg" version="1.1" style="" viewBox="95.07 42.33 850.93 967.11"><path d="M906.895 675.529c0-164.007-45.881-287.583-136.353-367.23-107.742-94.929-237.319-90.326-270.497-87.343h-58.548c-6.849-22.867-29.053-39.805-55.675-39.805h-29.127c-26.622 0-48.826 16.9-55.749 39.805h-205.874v174.466h203.518v17.307c0 30.009 26.107 54.461 58.106 54.461h29.127c32.073 0 58.106-24.413 58.106-54.461v-17.307h60.572l4.676 0.11 5.45-0.699c0.848-0.11 82.335-8.027 141.914 45.55 50.41 45.292 75.891 124.386 75.891 235.148h174.466zM268.173 156.147h210.993c24.985-0.020 45.233-20.27 45.255-45.253v-23.31c-0.020-24.985-20.27-45.233-45.253-45.255h-210.994c0 0 0 0 0 0-25.002 0-45.27 20.257-45.292 45.253v23.346c0.041 24.982 20.304 45.219 45.292 45.219 0 0 0 0 0 0zM852.73 720.157l-29.347-33.249-29.347 33.249c-21.872 24.781-93.271 110.135-93.271 166.659 0 67.606 55.012 122.62 122.62 122.62s122.62-55.012 122.62-122.62c0-56.523-71.325-141.875-93.271-166.659zM823.381 931.187c-24.502-0.041-44.35-19.903-44.371-44.405 0.074-12.117 19.148-44.889 44.371-78.729 25.334 33.767 44.223 66.539 44.371 78.726 0 24.524-19.847 44.407-44.371 44.407z"></path></svg>