<svg xmlns="http://www.w3.org/2000/svg" xmlns:xlink="http://www.w3.org/1999/xlink" version="1.0" xml:space="preserve" style="" viewBox="170.33 542.09 1991 597.8">  <g> 	<path d="M719.63,678.69c6,19.6,9.3,40.3,9.3,61.8c0,69.3-34.1,130.3-86,168.5c-90.1,66.4-221.6,66.5-403,123.7   c54.8,65.5,137.1,107.2,229.1,107.2c165,0,298.7-133.7,298.7-298.7C767.73,781.29,750.03,725.49,719.63,678.69"></path> 	<path d="M648.13,602.09c0-0.1,0-0.2,0.1-0.2c-50-37.6-112-59.8-179.2-59.8c-143.7,0-263.8,101.7-292.3,237.2   c-4.2,20-6.4,40.7-6.4,61.9c0,0,0,0,0,0.1l0,0c0,66.5,21.7,127.9,58.3,177.6c137.1-40,254.5-126.2,334.3-240.6   C600.13,725.09,629.13,665.79,648.13,602.09L648.13,602.09z"></path> 	<g> 		<path d="M1484.23,836.79v-0.4c-0.1-2.8-0.7-7-1.2-11.6c-1.2-8.3-3.1-16.6-5.5-24.6c-19-60-70.1-99-129.9-99    c-6,0-12.2,0.4-18.3,1.3c-76.9,9.9-129.1,79.5-118.9,158.4c9.3,71.7,66.9,120.6,136.9,120.6c5.8,0,11.9-0.4,18.2-1.2    c37.4-4.8,70.2-20.3,94.8-50.7c1.3-1.7,2-3.9,1.9-6c-0.3-1.7-1.5-3.5-3.2-4.8c-4.1-3.1-18.9-10.2-26.7-14c-2.5-1.2-4.4-2-5.4-2.6    c-2.5-1.3-4.2-1.7-5.7-1.7c-2,0-3.9,0.9-5.7,3.1c-15.8,18.5-35.9,28.2-56.4,30.8c-4.1,0.6-8,0.9-11.8,0.9    c-37.3,0-75.1-25.1-86-59.4l-0.1-0.9l0.7-0.3c1.9-1,19.3-9.2,45.2-9.2c3.2,0,6.5,0.1,9.7,0.4c7.4,0.6,14.8,1.6,22.8,2.6    c14.4,1.7,29.5,3.8,47.1,3.8c10.8,0,21.5-0.7,32.3-2.2c42.9-8.3,59.7-20.3,59.9-20.3    C1484.93,845.89,1484.63,842.69,1484.23,836.79L1484.23,836.79z M1435.93,819.29c-7,2.2-16.7,4.2-28.6,5.7    c-5.7,0.7-12.1,1.2-19.5,1.2c-12.5,0-26-1-39.1-2h-0.4c-12.2-0.9-23.7-1.7-34.6-1.7c-7.9,0-15.1,0.4-21.9,1.3    c-20.5,2.5-36.8,9-36.8,9l0.2-1.7c3.9-41.1,38.7-76.5,80.5-82c3.9-0.4,7.8-0.6,11.9-0.6c39.4,0,77.8,29.9,89.1,69.6l0.3,1    L1435.93,819.29L1435.93,819.29z"></path> 		<path d="M2147.23,710.49h-35.5c-3.6,0-6.5,2.8-6.5,6.4v251.5c0,3.6,2.9,6.5,6.5,6.5h35.5c3.5,0,6.4-2.9,6.4-6.5    v-251.5C2153.63,713.29,2150.73,710.49,2147.23,710.49z"></path> 		<path d="M2129.53,684.59c17.6,0,31.8-14.2,31.8-31.8c0-17.6-14.2-32-31.8-32c-17.6,0-32,14.4-32,32    C2097.53,670.39,2111.93,684.59,2129.53,684.59z"></path> 		<path d="M1661.93,701.19c-63.5,0-117.3,41.9-133.6,104.2c-2.9,10.6-5.7,37.5-5.7,64.4v197.2c0,3.6,2.8,6.5,6.4,6.5    l35-0.1c3.8,0,6.7-2.9,6.7-6.4l-0.1-124.3l1.9,1.7c17.1,16.7,49.3,35.3,87.2,37.2l0,0c2.2,0,4.5,0.1,6.8,0.1    c36.3,0,70.2-14.1,95.2-39.4c25.4-25.7,39.4-61,39.4-99.6C1801.13,763.49,1739.93,701.19,1661.93,701.19z M1664.03,935.89    c-25,0-48.1-9-65.1-25.1c-17.4-16.7-27-40.3-27-66.3c0-52.6,40.1-95.5,89.4-95.5l0,0c50,0,89.4,41.3,89.4,93.9    C1750.73,895.89,1713.53,935.89,1664.03,935.89z"></path> 		<path d="M1983.13,825.59c-5.2-1-10.6-2-16-3.2c-13.1-2.5-26.6-5.1-39-8.4c-8.6-2.3-36.6-11.8-36.6-32.7    c0-23.1,25.7-35.6,49.7-35.6c20.2,0,37.1,3.5,58.7,20.3c1.6,1.3,4.1,2.8,7,2.8c2,0,4.1-0.7,6.2-2.3c6.1-4.4,17-13.7,24.3-20.8    c1.6-1.7,2.5-3.6,2.3-5.5c-0.2-3.1-2.5-5.5-3.6-6.7c-28.9-22.8-56.5-32.1-95.8-32.3h-0.3c-56,0-98.3,36-98.3,83.7    c0,37.8,31.1,64.7,87.5,75.7l35.2,6.8c23.3,4.2,36.3,16.6,35.9,33.7c-0.4,16.9-21.1,34.3-54.9,34.3c-27.6,0-52-10.8-72.5-29.4    l-0.2-0.3c-1.4-1.3-3.2-2.9-5.5-2.9c-1.6,0-3.3,0.7-5.2,2.2c-2,1.7-25.7,20.5-28.2,23.1c-1.2,1.2-1.7,2.5-1.6,3.9    c0,2.2,1.5,4.2,2.8,5.4l0,0c30.5,27.9,63.8,43.9,107.3,43.9h1.3c74.7-0.4,108.1-41.4,108.1-81.5    C2051.73,844.19,1999.23,828.99,1983.13,825.59z"></path> 		<path d="M1031.63,701.19c-63.7,0-117.3,41.9-133.7,104.2c-2.8,10.6-5.5,37.5-5.5,64.4v197.2c0,3.6,2.8,6.5,6.3,6.5    l35.2-0.1c3.6,0,6.7-2.9,6.7-6.4l-0.3-124.3l1.9,1.7c17.1,16.7,49.1,35.3,87.2,37.2l0,0c2.2,0,4.5,0.1,6.8,0.1    c36.3,0,70.1-14.1,95.2-39.4c25.4-25.7,39.4-61,39.4-99.6C1170.83,763.49,1109.63,701.19,1031.63,701.19z M1033.63,935.89    c-25,0-48-9-65-25.1c-17.4-16.7-27-40.3-27-66.3c0-52.6,40.1-95.5,89.4-95.5l0,0c50,0,89.4,41.3,89.4,93.9    C1120.43,895.89,1083.03,935.89,1033.63,935.89z"></path> 	</g> </g> </svg>