<svg xmlns="http://www.w3.org/2000/svg" style="" viewBox="0.01 7 50.02 37"><path d="M 38.009766 7 L 36.009766 9.9902344 L 36.650391 11.009766 L 37.669922 9.3203125 C 37.689922 9.5303125 38.199219 11.480156 38.449219 12.160156 C 38.939219 13.520156 39.879297 14.840703 41.279297 15.470703 C 42.659297 16.110703 44.200313 16.030469 45.570312 15.730469 C 46.690313 15.480469 47.749531 14.669453 48.769531 14.189453 C 48.109531 15.329453 47.549141 16.939688 47.119141 18.179688 C 46.599141 19.689688 46.199688 21.240313 45.929688 22.820312 C 45.659687 24.400312 45.509062 26.010625 45.539062 27.640625 C 45.559063 28.730625 45.610859 30.329453 45.880859 31.439453 C 43.240859 31.099453 40.609219 30.470156 37.949219 30.660156 C 34.739219 30.880156 31.559062 31.550625 28.539062 32.640625 C 22.649062 34.760625 17.649141 38.410781 13.119141 42.550781 C 11.629141 40.850781 9.5891406 39.679766 7.6191406 38.759766 C 6.5391406 38.269766 5.4405469 37.859531 4.3105469 37.519531 C 3.4105469 37.259531 2.5107812 37.029922 1.5507812 36.919922 C 2.5907813 35.799922 3.419375 34.519453 4.109375 33.189453 C 4.909375 31.629453 5.5503125 29.999844 6.0703125 28.339844 C 6.9803125 25.419844 7.5590625 22.400312 7.7890625 19.320312 C 10.379063 20.010312 12.999453 20.620703 15.689453 20.970703 C 17.669453 21.220703 19.690703 21.349219 21.720703 21.199219 C 21.350703 20.939219 21.020703 20.640313 20.720703 20.320312 C 20.530703 20.120313 20.389063 19.879141 20.289062 19.619141 C 18.849062 19.599141 17.379219 19.450703 15.949219 19.220703 C 12.979219 18.750703 10.200781 18.290391 7.3007812 17.400391 L 6 16.990234 L 6 18.359375 C 6.01 18.579375 6.0097656 18.799531 6.0097656 19.019531 C 6.0097656 22.069531 5.5 24.930703 4.75 27.970703 C 4.35 29.600703 3.8399219 31.210234 3.1699219 32.740234 C 2.4999219 34.270234 1.6707812 35.740938 0.55078125 36.960938 L 0.009765625 37.539062 L 0.80078125 37.560547 C 1.8707813 37.620547 3.0000781 37.929531 4.0800781 38.269531 C 5.1600781 38.619531 6.23 39.039297 7.25 39.529297 C 9.28 40.529297 11.349922 41.820312 12.669922 43.570312 L 13 44 L 13.419922 43.640625 C 15.749922 41.590625 18.189297 39.679063 20.779297 38.039062 C 23.369297 36.399062 26.109063 35.040312 29.039062 34.070312 C 31.959062 33.110313 35.000781 32.559688 38.050781 32.429688 C 41.110781 32.289688 44.130391 33.070156 47.150391 33.660156 L 49.019531 34.019531 L 48.230469 32.210938 C 47.590469 31.040938 47.319688 29.040781 47.179688 27.550781 C 47.029688 26.050781 47.049687 24.510469 47.179688 22.980469 C 47.479687 19.940469 48.180625 16.450703 49.640625 13.720703 L 50.029297 12.990234 L 49.310547 13.369141 C 48.070547 13.949141 46.769453 14.849375 45.439453 15.109375 C 44.139453 15.359375 42.749375 15.359063 41.609375 14.789062 C 40.459375 14.219062 39.809297 13.059141 39.279297 11.869141 C 38.259297 9.5591406 38.009766 7 38.009766 7 z M 29.310547 8 C 28.059922 8.01575 26.742156 8.2800625 25.535156 8.8515625 C 22.815156 10.130562 21.246172 12.843141 20.951172 14.994141 C 20.931172 15.129141 20.861141 15.322219 20.494141 15.574219 C 20.158141 15.806219 19.903641 16.155203 20.056641 16.533203 C 20.168641 16.824203 20.463531 17.005047 20.769531 16.998047 C 21.125531 16.990047 21.085531 16.718625 20.769531 16.640625 C 20.697531 16.621625 20.656062 16.563141 20.664062 16.494141 C 20.685063 16.436141 20.747594 16.388437 20.808594 16.398438 C 20.808594 16.398437 23.61525 16.881797 25.03125 16.716797 C 26.42625 16.590797 27.847078 16.156281 29.080078 15.488281 C 30.302078 14.849281 31.403063 13.967875 32.289062 12.921875 C 32.717063 12.388875 33.134703 11.835375 33.470703 11.234375 C 33.826703 10.662375 34.347656 9.3945312 34.347656 9.3945312 C 34.368656 9.3365312 34.439 9.2974062 34.5 9.3164062 C 34.572 9.3354063 34.601797 9.4048906 34.591797 9.4628906 C 34.492797 9.8088906 34.693156 9.85925 34.785156 9.78125 C 35.101156 9.51925 35.071625 9.0368594 34.765625 8.7558594 C 34.470625 8.4748594 34.082781 8.5615625 33.675781 8.7265625 C 33.431781 8.8335625 32.9425 8.7546719 32.6875 8.6386719 C 31.745 8.2171719 30.561172 7.98425 29.310547 8 z M 34.583984 11.931641 C 34.523734 11.946016 34.465047 12.004656 34.435547 12.097656 C 34.298547 12.530656 32.854656 15.662531 29.972656 17.019531 C 25.694656 19.033531 22.917953 18.081422 22.376953 17.982422 C 22.191953 17.949422 22.056453 18.117047 22.189453 18.248047 C 24.011453 20.045047 27.997563 20.61675 30.726562 19.21875 C 35.587563 16.72775 35.229187 13.119297 34.742188 12.029297 C 34.705687 11.946797 34.644234 11.917266 34.583984 11.931641 z M 36.800781 15 L 35.517578 16.181641 C 35.028578 17.924641 34.072891 19.280047 32.712891 20.373047 L 32.53125 20.478516 L 32.363281 21.785156 L 33.554688 21.355469 L 32.417969 29 L 35.382812 28.185547 L 36.267578 20.394531 L 37.865234 19.820312 C 38.604234 19.554313 39.071906 18.824969 39.003906 18.042969 L 36.455078 18.898438 L 36.800781 15 z M 42.625 18.353516 C 40.379 18.525516 38.817328 20.056188 37.736328 21.992188 C 36.655328 23.928188 36.43825 27.799469 39.53125 27.480469 C 42.62425 27.161469 43.984375 23.578125 43.984375 23.578125 L 43.644531 23.212891 C 42.638531 24.880891 41.347172 26.020875 40.326172 25.421875 C 39.304172 24.823875 40.069797 22.490328 40.466797 21.361328 C 40.863797 20.232328 41.497984 19.463578 41.833984 19.517578 C 42.169984 19.571578 42.157703 20.058797 41.845703 21.091797 C 41.534703 22.124797 40.479406 23.243547 40.191406 23.435547 C 39.903406 23.627547 39.831156 23.788656 40.160156 23.722656 C 40.489156 23.656656 41.337453 23.36475 42.689453 22.34375 C 44.041453 21.32275 44.842 18.183516 42.625 18.353516 z M 32.009766 20.558594 L 29.363281 21.878906 L 28.009766 30.537109 L 30.755859 29.367188 L 32.009766 20.558594 z M 28.011719 22.033203 C 27.135719 22.012203 25.973469 22.799547 24.980469 24.810547 C 24.754469 24.023547 23.898438 23.640625 23.898438 23.640625 L 22.513672 24.164062 C 22.927672 24.559062 23.17125 25.714297 22.90625 27.404297 L 22.011719 33.203125 L 24.716797 31.681641 L 25.476562 26.480469 C 25.608563 25.583469 26.282187 24.894734 27.117188 24.802734 L 27.539062 24.757812 L 28.011719 22.033203 z M 13.960938 22.599609 C 12.781937 22.654359 11.295547 22.990187 10.060547 24.117188 C 7.9655469 26.055187 8.4067813 28.723187 9.5507812 29.617188 C 10.694781 30.511188 12.687938 31.659469 10.585938 33.605469 C 8.8919375 35.174469 6.90625 33.398438 6.90625 33.398438 L 6.0097656 36.798828 C 7.6327656 37.293828 10.228687 36.909781 11.929688 35.425781 C 13.629687 33.941781 14.341797 31.930625 14.341797 30.765625 C 14.341797 29.600625 13.808734 28.538266 12.552734 27.447266 C 12.007734 26.973266 11.328453 26.12375 11.564453 25.46875 C 11.948453 24.40375 13.802375 23.778453 15.484375 25.564453 L 16.011719 22.771484 C 16.011719 22.771484 15.139938 22.544859 13.960938 22.599609 z M 19.736328 25.09375 C 19.547543 25.107602 19.355937 25.149906 19.164062 25.222656 L 15.007812 26.798828 C 15.795812 27.082828 15.767547 28.149609 15.560547 29.474609 C 15.352547 30.799609 14.009766 38.521484 14.009766 38.521484 L 16.716797 36.46875 L 17.794922 29.820312 C 18.228922 26.692313 18.732359 26.660156 19.068359 26.660156 C 19.404359 26.660156 19.999281 27.048406 19.488281 29.441406 C 18.977281 31.834406 17.478516 33.552734 17.478516 33.552734 C 17.146516 33.873734 17.076453 34.073203 17.189453 34.033203 C 19.511453 33.217203 21.301547 31.208719 21.810547 28.636719 L 21.972656 27.818359 L 21.978516 27.775391 C 22.215641 26.263391 21.057824 24.996789 19.736328 25.09375 z"></path></svg>